<?xml version="1.0" encoding="iso-8859-1"?>
<!-- Generator: Adobe Illustrator 19.0.0, SVG Export Plug-In . SVG Version: 6.00 Build 0)  -->
<svg version="1.1" id="Capa_1" xmlns="http://www.w3.org/2000/svg" xmlns:xlink="http://www.w3.org/1999/xlink" x="0px" y="0px"
	 viewBox="0 0 512 512" style="enable-background:new 0 0 512 512;" xml:space="preserve">
<g>
	<g>
		<path d="M361.333,180.666v150.667H512V180.666H361.333z M440.221,288.128c-18.989,0-33.118-13.95-33.118-32.399
			c0-18.179,14.489-31.859,33.658-31.859c9.36,0,19.08,4.14,25.379,10.62l-9.27,10.979c-4.14-5.04-10.259-8.189-15.839-8.189
			c-9.989,0-17.549,7.919-17.549,18.269c0,10.53,7.56,18.54,17.549,18.54c5.31,0,11.43-2.88,15.839-7.38l9.36,9.9
			C459.48,283.539,449.491,288.128,440.221,288.128z"/>
	</g>
</g>
<g>
	<g>
		<path d="M257.35,261.219h-12.96v13.949h12.959c5.941,0,9.631-2.61,9.631-7.109C266.98,263.829,263.29,261.219,257.35,261.219z"/>
	</g>
</g>
<g>
	<g>
		<path d="M180.667,180.666v150.666h150.667V180.666H180.667z M259.329,287.497H228.46V224.5h0.001h29.789
			c14.129,0,23.129,6.12,23.129,15.75c0,6.66-4.14,11.969-10.8,13.859c7.92,1.53,12.959,7.74,12.959,15.929
			C283.538,280.748,274.179,287.497,259.329,287.497z"/>
	</g>
</g>
<g>
	<g>
		<path d="M257.35,236.74h-12.96V249.7h12.959c4.681,0,7.651-2.52,7.651-6.569C265,239.08,262.03,236.74,257.35,236.74z"/>
	</g>
</g>
<g>
	<g>
		<path d="M76.683,261.219H63.724v13.949h12.959c5.94,0,9.63-2.61,9.63-7.109C86.313,263.829,82.623,261.219,76.683,261.219z"/>
	</g>
</g>
<g>
	<g>
		<path d="M0,180.666v150.666h150.667V180.666H0z M78.663,287.497H47.795V224.5h29.789c14.129,0,23.129,6.12,23.129,15.75
			c0,6.66-4.14,11.969-10.8,13.859c7.92,1.53,12.959,7.74,12.959,15.929C102.872,280.748,93.513,287.497,78.663,287.497z"/>
	</g>
</g>
<g>
	<g>
		<path d="M76.683,236.74H63.724V249.7h12.959c4.68,0,7.65-2.52,7.65-6.569C84.333,239.08,81.363,236.74,76.683,236.74z"/>
	</g>
</g>
<g>
</g>
<g>
</g>
<g>
</g>
<g>
</g>
<g>
</g>
<g>
</g>
<g>
</g>
<g>
</g>
<g>
</g>
<g>
</g>
<g>
</g>
<g>
</g>
<g>
</g>
<g>
</g>
<g>
</g>
</svg>
